<?xml version="1.0" standalone="no"?>
<!DOCTYPE svg PUBLIC "-//W3C//DTD SVG 20010904//EN"
 "http://www.w3.org/TR/2001/REC-SVG-20010904/DTD/svg10.dtd">
<svg version="1.0" xmlns="http://www.w3.org/2000/svg"
 width="500.000000pt" height="500.000000pt" viewBox="0 0 500.000000 500.000000"
 preserveAspectRatio="xMidYMid meet">
<metadata>
Created by potrace 1.11, written by Peter Selinger 2001-2013
</metadata>
<g transform="translate(0.000000,500.000000) scale(0.100000,-0.100000)"
fill="#000000" stroke="none">
<path d="M0 2500 l0 -2500 2500 0 2500 0 0 2500 0 2500 -2500 0 -2500 0 0
-2500z m1986 1405 c9 -14 15 -27 13 -29 -2 -2 -35 -14 -74 -26 -207 -67 -438
-177 -606 -288 -59 -39 -110 -75 -113 -80 -4 -6 45 14 108 43 402 192 807 275
1266 262 448 -13 862 -111 1212 -288 33 -17 62 -28 65 -26 2 3 -51 42 -118 87
-185 122 -427 235 -652 305 -86 27 -87 28 -70 48 16 18 26 19 103 13 103 -7
226 -34 352 -76 117 -39 330 -145 428 -213 73 -51 76 -54 132 -167 239 -480
407 -1144 425 -1675 l6 -170 -40 -50 c-205 -258 -537 -423 -904 -451 l-84 -6
-100 122 c-142 175 -134 156 -73 174 71 20 224 96 299 147 67 45 204 171 221
202 8 16 3 15 -34 -8 -98 -61 -333 -167 -473 -214 -283 -94 -510 -131 -795
-131 -340 0 -626 58 -955 194 -101 42 -291 140 -318 164 -9 8 -19 13 -22 10
-3 -2 20 -32 51 -66 106 -117 276 -227 444 -286 41 -15 81 -29 88 -31 9 -3
-25 -53 -95 -140 l-108 -136 -85 6 c-364 24 -713 196 -908 449 l-45 58 7 139
c15 302 57 576 135 881 76 296 199 636 311 858 36 72 42 78 131 136 252 166
570 278 801 283 51 1 59 -2 74 -24z"/>
<path d="M2495 3600 c0 -107 0 -107 22 -97 12 5 20 14 16 20 -3 6 -1 7 5 3 6
-4 20 -2 30 3 15 8 26 3 57 -29 l39 -40 288 0 289 0 24 -25 25 -24 0 -236 c0
-252 -3 -240 47 -238 7 1 10 -3 7 -8 -10 -16 44 -21 72 -6 44 22 109 49 101
40 -4 -4 14 -28 39 -54 l47 -48 -27 -61 c-24 -54 -26 -65 -16 -91 7 -16 17
-26 23 -22 6 3 7 1 3 -5 -4 -6 -4 -21 -1 -34 5 -18 21 -29 67 -45 33 -13 63
-21 67 -19 3 2 4 -32 1 -76 l-5 -81 -59 -21 c-57 -20 -60 -23 -84 -79 l-25
-58 28 -60 29 -60 -51 -51 -52 -51 -61 27 -62 28 -56 -25 c-54 -23 -58 -27
-78 -83 l-21 -59 -81 -5 c-44 -3 -78 -2 -76 1 2 4 -6 33 -18 65 -21 57 -23 60
-79 82 l-57 22 -62 -26 -61 -27 -48 47 c-26 25 -51 43 -55 39 -4 -4 2 14 13
41 12 26 18 53 14 58 -3 6 -1 8 5 4 6 -3 13 2 16 11 7 21 4 39 -6 36 -4 -2 -4
5 -1 14 5 12 3 14 -7 8 -9 -5 -11 -4 -6 4 4 6 2 26 -5 45 -10 29 -20 36 -73
53 l-61 19 -5 81 c-3 45 -2 79 1 77 4 -2 33 5 65 16 57 20 60 22 85 79 l26 58
-26 52 c-15 28 -29 50 -31 47 -3 -2 -5 6 -5 19 0 13 2 21 4 19 10 -10 89 79
84 95 -4 13 -3 13 5 2 6 -8 17 -11 27 -8 9 4 14 3 11 -1 -3 -5 20 -20 50 -35
l54 -27 0 74 0 74 -56 4 -56 3 4 -31 c2 -19 0 -30 -7 -28 -15 6 -107 -31 -98
-40 4 -4 1 -5 -7 -2 -11 4 -23 -12 -41 -52 l-26 -58 26 -53 c15 -28 29 -50 31
-47 3 2 5 -6 5 -19 0 -13 -2 -21 -4 -19 -10 10 -89 -79 -84 -95 3 -11 2 -12
-4 -4 -6 9 -95 53 -106 53 -1 0 -2 -228 -2 -506 l0 -507 135 6 c323 14 768
143 1075 312 123 68 185 107 181 113 -2 4 7 8 21 9 25 1 25 1 21 -75 -4 -85
-41 -180 -99 -253 -17 -22 -27 -44 -23 -50 4 -7 3 -9 -3 -6 -13 8 -86 -67 -76
-77 5 -4 3 -6 -2 -4 -13 4 -156 -102 -150 -112 3 -4 -1 -7 -8 -6 -15 1 -167
-85 -167 -95 0 -4 23 -26 50 -49 48 -40 53 -42 98 -35 80 11 238 53 309 81
134 53 279 136 268 154 -3 5 0 7 7 5 16 -6 135 107 178 170 l29 42 -14 119
c-38 322 -109 694 -176 914 -37 122 -91 260 -100 254 -5 -3 -6 1 -3 9 11 30
-147 287 -177 287 -6 0 -7 -5 -3 -12 4 -7 3 -8 -5 -4 -6 4 -9 11 -6 16 20 32
-306 172 -555 240 -204 55 -469 94 -705 103 l-100 4 0 -107z m1350 -382 c73
-63 101 -161 70 -242 -46 -121 -173 -113 -237 13 -63 123 -13 261 93 261 29 0
47 -8 74 -32z"/>
<path d="M2665 3246 c19 -43 28 -51 71 -68 27 -10 58 -23 69 -28 11 -5 61 -11
110 -12 l90 -3 3 -92 c1 -51 7 -93 11 -93 10 0 53 119 46 129 -2 4 11 5 28 3
l32 -4 -3 106 -3 105 -238 3 -238 3 22 -49z"/>
<path d="M1810 2671 c-82 -27 -176 -105 -214 -179 -16 -30 -15 -32 1 -33 10
-1 22 -1 26 0 4 1 16 -3 25 -8 12 -6 26 -5 42 5 37 20 61 17 92 -13 33 -32 35
-52 8 -83 -21 -24 -27 -50 -11 -50 5 0 13 -9 16 -20 4 -12 24 -28 46 -36 38
-16 39 -17 39 -68 l0 -52 -45 -12 c-38 -10 -55 -27 -43 -44 1 -2 -4 -13 -11
-26 -18 -33 5 -90 39 -100 44 -12 133 -7 188 12 72 24 153 100 193 181 25 51
31 77 34 141 1 44 1 63 -2 42 -3 -31 -9 -38 -42 -52 -38 -14 -57 -39 -45 -57
3 -5 0 -9 -5 -9 -6 0 -10 -5 -9 -11 2 -7 -17 -11 -52 -11 -35 0 -54 4 -52 11
1 6 -2 11 -7 11 -5 0 -9 6 -8 13 1 34 -6 43 -43 55 -35 10 -45 10 -71 -4 -30
-15 -32 -15 -58 10 -15 15 -30 23 -34 20 -17 -17 -16 28 1 63 18 34 19 42 7
70 -12 29 -41 46 -80 48 -5 0 -10 22 -10 49 0 49 0 49 42 64 28 11 44 23 48
39 5 22 10 23 90 23 49 0 85 -4 85 -10 0 -5 -9 -24 -19 -41 -32 -52 -10 -136
44 -169 44 -27 88 -25 146 6 l48 27 -17 31 c-28 50 -103 120 -156 146 -53 25
-178 37 -226 21z"/>
<path d="M1550 2312 c0 -4 5 -35 11 -67 17 -93 71 -184 133 -227 24 -17 21
-11 -16 28 l-47 49 10 49 c10 55 6 89 -14 120 -16 23 -77 62 -77 48z"/>
<path d="M1750 1980 c20 -13 33 -13 25 0 -3 6 -14 10 -23 10 -15 0 -15 -2 -2
-10z"/>
</g>
</svg>
