<?xml version="1.0" standalone="no"?>
<!DOCTYPE svg PUBLIC "-//W3C//DTD SVG 20010904//EN"
 "http://www.w3.org/TR/2001/REC-SVG-20010904/DTD/svg10.dtd">
<svg version="1.0" xmlns="http://www.w3.org/2000/svg"
 width="481.000000pt" height="481.000000pt" viewBox="0 0 481.000000 481.000000"
 preserveAspectRatio="xMidYMid meet">
<metadata>
Created by potrace 1.11, written by Peter Selinger 2001-2013
</metadata>
<g transform="translate(0.000000,481.000000) scale(0.100000,-0.100000)"
fill="#000000" stroke="none">
<path d="M1635 3782 c-144 -30 -126 -25 -240 -67 -128 -48 -277 -124 -385
-196 -72 -49 -89 -66 -111 -111 -15 -29 -27 -56 -28 -60 -1 -4 -17 -38 -35
-75 -18 -37 -50 -113 -71 -168 -22 -55 -43 -102 -47 -103 -5 -2 -6 -7 -3 -12
2 -4 -6 -35 -20 -69 -13 -34 -24 -63 -24 -64 0 -1 -2 -9 -5 -17 -13 -38 -67
-219 -70 -236 -2 -10 -14 -57 -27 -104 -12 -47 -22 -92 -22 -100 0 -8 -3 -19
-7 -25 -4 -5 -11 -32 -15 -60 -5 -27 -10 -57 -12 -65 -2 -8 -5 -28 -8 -45 -2
-16 -6 -43 -9 -60 -9 -46 -15 -85 -21 -140 -3 -27 -8 -64 -10 -81 -9 -64 -19
-212 -19 -291 -1 -46 -4 -83 -8 -83 -11 0 9 -56 28 -79 11 -13 27 -32 36 -43
10 -11 15 -25 11 -31 -3 -5 -1 -7 4 -4 13 8 46 -27 36 -38 -5 -4 -3 -5 3 -2 6
4 22 -5 35 -19 31 -34 151 -122 203 -150 23 -13 40 -27 39 -33 -2 -6 3 -8 11
-5 17 7 88 -30 78 -41 -4 -5 -1 -5 5 -1 7 4 27 1 45 -7 44 -20 68 -28 98 -33
13 -3 30 -10 37 -16 7 -6 13 -8 13 -5 0 3 19 0 43 -5 79 -18 92 -21 109 -20
10 0 20 -3 23 -8 3 -5 12 -7 20 -3 9 3 23 -1 32 -8 14 -12 16 -12 9 0 -7 10
-3 11 15 6 51 -17 101 -7 127 25 13 16 29 27 35 23 6 -3 7 -1 3 5 -7 12 100
152 117 152 6 0 7 3 4 7 -4 3 3 17 14 29 17 18 19 25 8 28 -8 3 -43 15 -79 27
-84 28 -187 80 -275 137 -73 49 -241 209 -230 220 3 4 9 2 13 -4 9 -13 188
-114 202 -114 6 0 8 -5 4 -12 -4 -6 -3 -8 3 -5 12 7 146 -47 137 -56 -3 -3 2
-4 13 -3 10 2 35 -5 55 -15 21 -11 44 -19 53 -19 8 0 15 -4 15 -8 0 -4 12 -9
26 -10 14 -1 31 -5 37 -9 7 -4 17 -8 22 -9 38 -6 125 -40 125 -48 0 -7 3 -6 8
1 6 10 19 9 56 -2 44 -13 121 -27 154 -28 6 0 12 -3 12 -6 0 -3 23 -7 50 -7
28 -1 58 -8 67 -15 9 -8 14 -9 10 -3 -10 17 58 11 79 -7 10 -8 15 -9 11 -2 -9
15 54 13 65 -2 5 -7 8 -7 8 0 0 11 79 13 96 2 6 -3 14 -3 18 1 4 4 42 8 84 9
42 1 77 2 77 3 0 1 9 3 20 5 45 9 71 9 84 1 10 -7 12 -5 6 4 -6 10 0 12 23 8
17 -2 29 -1 26 3 -2 4 4 8 13 8 10 0 38 3 63 6 25 4 55 8 68 8 12 1 22 5 22 9
0 7 73 22 108 22 12 0 22 4 22 9 0 5 7 6 16 3 8 -3 12 -2 9 4 -6 10 4 12 52
13 12 1 19 5 16 11 -4 5 3 7 15 4 14 -4 20 -2 15 5 -4 6 0 8 10 4 10 -3 17 -3
17 1 0 9 109 47 123 44 4 -1 7 3 7 9 0 6 9 9 20 6 13 -3 18 -1 13 6 -4 6 2 8
15 5 12 -4 19 -2 16 3 -3 5 3 12 13 16 10 3 38 15 63 26 25 11 51 20 58 20 6
0 10 3 7 5 -3 3 16 17 42 32 31 17 51 22 55 15 5 -6 8 -4 8 5 0 9 14 24 30 33
35 21 37 18 9 -14 -12 -13 -32 -37 -45 -52 -14 -16 -29 -25 -35 -21 -7 4 -9 3
-6 -3 7 -11 -57 -68 -133 -120 -66 -44 -160 -91 -255 -127 l-84 -32 39 -51
c22 -28 36 -54 32 -58 -4 -5 -2 -5 5 -1 7 3 21 -7 35 -26 30 -43 59 -77 81
-97 9 -8 17 -21 17 -29 0 -10 23 -12 104 -10 57 2 102 6 100 9 -3 6 151 35
174 33 6 -1 12 2 12 6 0 5 15 12 33 15 17 4 37 10 42 13 6 4 15 7 22 8 21 3
158 68 161 76 2 5 7 6 12 3 4 -3 13 2 20 10 7 8 19 15 26 15 8 0 14 3 14 8 0
4 17 16 37 27 38 20 48 28 103 78 20 19 37 27 48 22 13 -5 14 -3 5 6 -8 8 2
25 44 68 80 82 85 96 83 220 -2 112 -4 144 -15 256 -4 39 -8 86 -9 105 -2 19
-6 44 -9 55 -3 11 -8 45 -12 76 -3 31 -10 71 -15 88 -5 17 -9 34 -9 36 2 28
-68 332 -95 418 -7 23 -19 62 -26 87 -7 25 -17 59 -24 75 -6 17 -11 32 -12 35
0 3 -3 12 -7 20 -3 8 -13 38 -22 65 -16 49 -43 121 -96 250 -42 102 -131 274
-150 290 -84 70 -324 199 -434 235 -22 7 -46 17 -52 23 -7 5 -13 7 -13 4 0 -3
-28 4 -61 14 -92 29 -195 49 -282 55 -66 5 -81 3 -97 -11 -25 -23 -19 -31 30
-39 23 -3 38 -11 35 -16 -3 -5 0 -7 8 -4 7 2 27 -1 43 -7 16 -7 34 -13 39 -15
25 -7 135 -48 175 -66 95 -41 290 -143 290 -150 0 -4 5 -8 12 -8 14 0 210
-131 204 -137 -6 -6 -69 27 -78 41 -4 6 -8 8 -8 4 0 -3 -37 10 -82 29 -46 19
-119 48 -163 64 -99 37 -103 38 -113 40 -4 1 -18 6 -32 11 -36 14 -249 68
-290 74 -19 2 -46 7 -59 10 -13 3 -46 7 -75 10 -28 3 -62 7 -76 10 -70 13
-196 19 -390 19 -211 0 -333 -8 -450 -30 -19 -4 -45 -9 -57 -11 -32 -6 -64
-12 -88 -18 -11 -2 -42 -9 -70 -15 -27 -6 -61 -16 -75 -21 -14 -5 -34 -11 -45
-13 -11 -1 -24 -5 -30 -8 -5 -4 -41 -16 -80 -28 -38 -13 -79 -26 -90 -31 -11
-5 -65 -28 -120 -51 -55 -24 -122 -56 -149 -72 -70 -41 -39 -8 47 49 40 27 75
53 78 58 4 5 12 5 19 1 8 -5 11 -4 7 2 -8 13 20 26 35 16 6 -3 8 -1 5 4 -4 6
15 22 43 37 28 14 50 23 50 19 0 -5 5 -1 10 7 5 8 13 15 17 16 4 0 43 17 86
37 43 21 84 34 90 31 7 -4 8 -3 4 1 -9 10 131 67 144 59 5 -3 9 -1 9 3 0 5 27
17 60 26 33 10 60 23 60 28 0 5 -8 19 -19 30 -24 26 -101 24 -256 -9z"/>
</g>
</svg>
